<svg width="36" height="36" viewBox="0 0 36 36" fill="none" xmlns="http://www.w3.org/2000/svg">
<circle cx="18" cy="18" r="18" fill="#D9D9D9"/>
<g clip-path="url(#clip0_128_129)">
<path d="M10 11.2921C10 10.0279 11.0631 9 12.3708 9H18.2977V13.5842C18.2977 14.2181 18.8275 14.7303 19.4831 14.7303H24.2247V19.73L20.7167 23.1216C20.4129 23.4152 20.1981 23.7841 20.0943 24.1853L19.5387 26.3377C19.4535 26.6744 19.472 27.0182 19.5906 27.3333H12.3708C11.0631 27.3333 10 26.3055 10 25.0412V11.2921ZM24.2247 13.5842H19.4831V9L24.2247 13.5842ZM30.3665 17.4414L30.8999 17.9572C31.4778 18.5159 31.4778 19.422 30.8999 19.9842L29.8108 21.0372L27.1808 18.4944L28.2698 17.4414C28.8477 16.8827 29.7849 16.8827 30.3665 17.4414ZM21.5539 23.9346L26.3399 19.3074L28.97 21.8502L24.1839 26.4738C24.0321 26.6206 23.8431 26.7245 23.632 26.7746L21.4057 27.3118C21.2019 27.362 20.9908 27.3047 20.8426 27.1614C20.6944 27.0182 20.6352 26.814 20.687 26.617L21.2427 24.4646C21.2946 24.264 21.402 24.0778 21.5539 23.931V23.9346Z" fill="black"/>
</g>
<defs>
<clipPath id="clip0_128_129">
<rect width="24" height="22" fill="white" transform="translate(7 5)"/>
</clipPath>
</defs>
</svg>
