<svg width="36" height="37" viewBox="0 0 36 37" fill="none" xmlns="http://www.w3.org/2000/svg">
<circle cx="18" cy="18" r="18" fill="#D9D9D9"/>
<path d="M9 10.052C9 7.2623 11.1691 5 13.8438 5H22.1562C24.8309 5 27 7.2623 27 10.052C27 11.8186 26.1303 13.3742 24.8107 14.276C26.1303 15.1777 27 16.7334 27 18.5C27 21.2896 24.8309 23.552 22.1562 23.552H22.05C20.7961 23.552 19.6534 23.0562 18.7938 22.2389V26.8953C18.7938 29.7219 16.5691 32 13.8691 32C11.1994 32 9 29.743 9 26.948C9 25.1814 9.86966 23.6258 11.1843 22.724C9.86966 21.8223 9 20.2666 9 18.5C9 16.7334 9.86966 15.1777 11.1843 14.276C9.86966 13.3742 9 11.8186 9 10.052ZM17.2062 15.1039H13.8438C12.0438 15.1039 10.5876 16.6227 10.5876 18.5C10.5876 20.3668 12.0337 21.8855 13.8236 21.8961C13.8287 21.8961 13.8388 21.8961 13.8438 21.8961H17.2062V15.1039ZM18.7938 18.5C18.7938 20.3773 20.25 21.8961 22.05 21.8961H22.1562C23.9511 21.8961 25.4124 20.3773 25.4124 18.5C25.4124 16.6227 23.9511 15.1039 22.1562 15.1039H22.05C20.25 15.1039 18.7938 16.6227 18.7938 18.5ZM13.8438 23.552C13.8388 23.552 13.8287 23.552 13.8236 23.552C12.0337 23.5625 10.5876 25.0813 10.5876 26.948C10.5876 28.8201 12.064 30.3441 13.8691 30.3441C15.7045 30.3441 17.2062 28.7938 17.2062 26.8953V23.552H13.8438ZM13.8438 6.65586C12.0438 6.65586 10.5876 8.17461 10.5876 10.052C10.5876 11.9293 12.0438 13.448 13.8438 13.448H17.2062V6.65586H13.8438ZM18.7938 13.448H22.1562C23.9511 13.448 25.4124 11.9293 25.4124 10.052C25.4124 8.17461 23.9511 6.65586 22.1562 6.65586H18.7938V13.448Z" fill="black"/>
</svg>
