<svg width="36" height="36" viewBox="0 0 36 36" fill="none" xmlns="http://www.w3.org/2000/svg">
<circle cx="18" cy="18" r="18" fill="#D9D9D9"/>
<path d="M30.1068 18.1219C32.6311 15.1186 32.6311 10.2548 30.1068 7.25145C27.873 4.59363 24.3526 4.24811 21.7837 6.43284L21.7122 6.49131C21.0689 7.03882 20.9214 8.10195 21.3816 8.86209C21.8418 9.62222 22.7353 9.80295 23.3742 9.25544L23.4456 9.19697C24.8797 7.97969 26.841 8.17105 28.083 9.65412C29.4903 11.3285 29.4903 14.0395 28.083 15.7139L23.0704 21.6887C21.6631 23.3631 19.3846 23.3631 17.9773 21.6887C16.7308 20.2057 16.57 17.8721 17.5931 16.1711L17.6422 16.086C18.1024 15.3206 17.9505 14.2575 17.3116 13.7153C16.6727 13.1731 15.7748 13.3485 15.3191 14.1086L15.2699 14.1937C13.4293 17.2448 13.7197 21.4336 15.9535 24.0914C18.4777 27.0947 22.5655 27.0947 25.0897 24.0914L30.1068 18.1219ZM6.89315 16.8781C4.36895 19.8814 4.36895 24.7452 6.89315 27.7486C9.12695 30.4064 12.6474 30.7519 15.2163 28.5672L15.2878 28.5087C15.9311 27.9612 16.0786 26.898 15.6184 26.1379C15.1582 25.3778 14.2647 25.197 13.6258 25.7446L13.5544 25.803C12.1203 27.0203 10.159 26.8289 8.91698 25.3459C7.50968 23.6661 7.50968 20.9552 8.91698 19.2807L13.9296 13.3113C15.3369 11.6369 17.6154 11.6369 19.0227 13.3113C20.2692 14.7943 20.43 17.1279 19.4069 18.8342L19.3578 18.9193C18.8976 19.6847 19.0495 20.7479 19.6884 21.2901C20.3273 21.8322 21.2252 21.6568 21.6809 20.8967L21.7301 20.8116C23.5707 17.7551 23.2803 13.5664 21.0465 10.9086C18.5223 7.90527 14.4345 7.90527 11.9103 10.9086L6.89315 16.8781Z" fill="black"/>
</svg>
