<svg width="43" height="50" viewBox="0 0 43 50" fill="none" xmlns="http://www.w3.org/2000/svg">
<path d="M37.8118 14.707C39.1685 13.4863 39.1685 11.5039 37.8118 10.2832C36.455 9.0625 34.2516 9.0625 32.8949 10.2832L21.4656 20.5762L10.0255 10.293C8.66874 9.07227 6.46538 9.07227 5.10863 10.293C3.75188 11.5137 3.75188 13.4961 5.10863 14.7168L16.5488 25L5.11948 35.293C3.76273 36.5137 3.76273 38.4961 5.11948 39.7168C6.47623 40.9375 8.6796 40.9375 10.0363 39.7168L21.4656 29.4238L32.9057 39.707C34.2625 40.9277 36.4659 40.9277 37.8226 39.707C39.1794 38.4863 39.1794 36.5039 37.8226 35.2832L26.3825 25L37.8118 14.707Z" fill="#12ABC5"/>
</svg>
